<svg width="430" height="170" viewBox="0 0 430 170" fill="none" xmlns="http://www.w3.org/2000/svg">
<g clip-path="url(#clip0_1577_728)">
<path d="M417.422 73.7061L420.975 85.771L415.507 87.731L417.422 73.7061Z" fill="#FFCC00"/>
<path d="M417.422 73.7061L413.869 85.771L419.336 87.731L417.422 73.7061Z" fill="#FFCC00"/>
<path d="M406.492 82.4727L417.876 82.7314L417.99 88.8156L406.492 82.4727Z" fill="#FFCC00"/>
<path d="M406.492 82.3379L415.899 89.9287L419.174 84.9316L406.492 82.3379Z" fill="#FFCC00"/>
<path d="M410.656 96.5811L414.115 84.5896L419.677 86.6229L410.656 96.5811Z" fill="#FFCC00"/>
<path d="M410.734 96.6553L419.97 89.2812L416.525 84.0674L410.734 96.6553Z" fill="#FFCC00"/>
<path d="M428.359 82.4727L416.975 82.7314L416.861 88.8156L428.359 82.4727Z" fill="#FFCC00"/>
<path d="M428.359 82.3379L418.953 89.9287L415.678 84.9316L428.359 82.3379Z" fill="#FFCC00"/>
<path d="M424.18 96.5811L420.721 84.5896L415.159 86.6229L424.18 96.5811Z" fill="#FFCC00"/>
<path d="M424.102 96.6553L414.865 89.2812L418.311 84.0674L424.102 96.6553Z" fill="#FFCC00"/>
<path d="M389.633 30.7412L380.4 23.3712L383.849 18.1533L389.633 30.7412Z" fill="#FFCC00"/>
<path d="M389.688 30.6641L386.233 18.6762L380.667 20.7131L389.688 30.6641Z" fill="#FFCC00"/>
<path d="M393.852 16.4824L384.491 24.0098L381.17 18.9492L393.852 16.4824Z" fill="#FFCC00"/>
<path d="M393.852 16.5537L382.417 16.6922L382.353 22.8966L393.852 16.5537Z" fill="#FFCC00"/>
<path d="M383.039 7.78906L386.494 19.7763L380.928 21.8139L383.039 7.78906Z" fill="#FFCC00"/>
<path d="M383.039 7.78906L379.39 19.9317L384.763 21.8139L383.039 7.78906Z" fill="#FFCC00"/>
<path d="M376.125 30.7422L385.49 23.2085L382.173 18.1543L376.125 30.7422Z" fill="#FFCC00"/>
<path d="M376.195 30.8115L379.836 18.6768L385.216 20.567L376.195 30.8115Z" fill="#FFCC00"/>
<path d="M372 16.6133L381.256 24.0104L384.682 18.8197L372 16.6133Z" fill="#FFCC00"/>
<path d="M372.031 16.6689L383.479 16.5539L383.428 22.7818L372.031 16.6689Z" fill="#FFCC00"/>
<path d="M401.414 58.5264L404.868 46.5385L410.435 48.5754L401.414 58.5264Z" fill="#FFCC00"/>
<path d="M401.477 58.6016L410.709 51.2316L407.261 46.0136L401.477 58.6016Z" fill="#FFCC00"/>
<path d="M415.008 58.6006L405.643 51.0669L408.96 46.0127L415.008 58.6006Z" fill="#FFCC00"/>
<path d="M414.945 58.6709L411.305 46.5362L405.924 48.4264L414.945 58.6709Z" fill="#FFCC00"/>
<path d="M419.125 44.4727L409.869 51.8698L406.443 46.6791L419.125 44.4727Z" fill="#FFCC00"/>
<path d="M419.078 44.5303L407.63 44.4153L407.681 50.6431L419.078 44.5303Z" fill="#FFCC00"/>
<path d="M397.234 44.3467L406.595 51.874L409.916 46.8135L397.234 44.3467Z" fill="#FFCC00"/>
<path d="M397.234 44.4189L408.669 44.5574L408.733 50.7618L397.234 44.4189Z" fill="#FFCC00"/>
<path d="M408.078 35.6514L404.623 47.6386L410.189 49.6762L408.078 35.6514Z" fill="#FFCC00"/>
<path d="M408.086 35.6514L411.735 47.7941L406.362 49.6762L408.086 35.6514Z" fill="#FFCC00"/>
<path d="M397.258 120.53L408.597 120.893L408.756 126.873L397.258 120.53Z" fill="#FFCC00"/>
<path d="M397.258 120.341L406.705 127.988L409.939 123.047L397.258 120.341Z" fill="#FFCC00"/>
<path d="M401.438 134.511L404.74 122.649L410.458 124.812L401.438 134.511Z" fill="#FFCC00"/>
<path d="M401.602 134.713L410.731 127.488L407.179 122.125L401.602 134.713Z" fill="#FFCC00"/>
<path d="M415.031 134.713L405.626 127.115L408.902 122.125L415.031 134.713Z" fill="#FFCC00"/>
<path d="M414.93 134.844L411.234 122.65L405.909 124.481L414.93 134.844Z" fill="#FFCC00"/>
<path d="M407.984 111.767L404.631 123.649L410.299 125.792L407.984 111.767Z" fill="#FFCC00"/>
<path d="M407.992 111.767L411.735 124.015L406.457 125.792L407.992 111.767Z" fill="#FFCC00"/>
<path d="M419.078 120.698L407.632 120.531L407.685 126.707L419.078 120.698Z" fill="#FFCC00"/>
<path d="M419.133 120.619L409.878 127.988L406.451 122.77L419.133 120.619Z" fill="#FFCC00"/>
<path d="M371.977 148.392L383.316 148.754L383.475 154.734L371.977 148.392Z" fill="#FFCC00"/>
<path d="M371.977 148.201L381.424 155.848L384.658 150.908L371.977 148.201Z" fill="#FFCC00"/>
<path d="M376.156 162.368L379.459 150.506L385.177 152.669L376.156 162.368Z" fill="#FFCC00"/>
<path d="M376.32 162.57L385.45 155.345L381.897 149.982L376.32 162.57Z" fill="#FFCC00"/>
<path d="M389.773 162.571L380.368 154.973L383.644 149.983L389.773 162.571Z" fill="#FFCC00"/>
<path d="M389.672 162.701L385.976 150.507L380.651 152.338L389.672 162.701Z" fill="#FFCC00"/>
<path d="M382.719 139.627L379.366 151.51L385.034 153.652L382.719 139.627Z" fill="#FFCC00"/>
<path d="M382.734 139.627L386.477 151.876L381.199 153.652L382.734 139.627Z" fill="#FFCC00"/>
<path d="M393.805 148.559L382.359 148.392L382.412 154.567L393.805 148.559Z" fill="#FFCC00"/>
<path d="M393.852 148.479L384.597 155.848L381.17 150.629L393.852 148.479Z" fill="#FFCC00"/>
<path d="M12.5781 72.6162L9.02488 84.6812L14.4926 86.6412L12.5781 72.6162Z" fill="#FFCC00"/>
<path d="M12.5781 72.6162L16.1314 84.6812L10.6636 86.6412L12.5781 72.6162Z" fill="#FFCC00"/>
<path d="M23.5156 81.3828L12.1317 81.6416L12.0174 87.7257L23.5156 81.3828Z" fill="#FFCC00"/>
<path d="M23.5156 81.248L14.109 88.8389L10.834 83.8418L23.5156 81.248Z" fill="#FFCC00"/>
<path d="M19.3438 95.4912L15.8848 83.4997L10.3228 85.5331L19.3438 95.4912Z" fill="#FFCC00"/>
<path d="M19.2656 95.5654L10.0296 88.1914L13.4752 82.9775L19.2656 95.5654Z" fill="#FFCC00"/>
<path d="M1.65625 81.3828L13.0401 81.6416L13.1545 87.7257L1.65625 81.3828Z" fill="#FFCC00"/>
<path d="M1.65625 81.248L11.0629 88.8389L14.3379 83.8418L1.65625 81.248Z" fill="#FFCC00"/>
<path d="M5.82031 95.4912L9.27922 83.4997L14.8413 85.5331L5.82031 95.4912Z" fill="#FFCC00"/>
<path d="M5.89844 95.5654L15.1345 88.1914L11.6889 82.9775L5.89844 95.5654Z" fill="#FFCC00"/>
<path d="M40.3672 29.6494L49.6 22.2794L46.1512 17.0615L40.3672 29.6494Z" fill="#FFCC00"/>
<path d="M40.3047 29.5732L43.759 17.5853L49.3257 19.6223L40.3047 29.5732Z" fill="#FFCC00"/>
<path d="M36.1328 15.3916L45.4934 22.919L48.8145 17.8584L36.1328 15.3916Z" fill="#FFCC00"/>
<path d="M36.1328 15.4619L47.5672 15.6004L47.6312 21.8048L36.1328 15.4619Z" fill="#FFCC00"/>
<path d="M46.9531 6.69727L43.498 18.6845L49.0639 20.7221L46.9531 6.69727Z" fill="#FFCC00"/>
<path d="M46.9531 6.69727L50.6018 18.8399L45.2295 20.7221L46.9531 6.69727Z" fill="#FFCC00"/>
<path d="M53.875 29.6514L44.5101 22.1177L47.8268 17.0635L53.875 29.6514Z" fill="#FFCC00"/>
<path d="M53.8125 29.7197L50.1723 17.5851L44.7915 19.4752L53.8125 29.7197Z" fill="#FFCC00"/>
<path d="M58.0078 15.5234L48.7516 22.9206L45.3261 17.7298L58.0078 15.5234Z" fill="#FFCC00"/>
<path d="M57.9531 15.5781L46.5054 15.4631L46.556 21.6909L57.9531 15.5781Z" fill="#FFCC00"/>
<path d="M28.5781 57.4346L25.1239 45.4467L19.5571 47.4836L28.5781 57.4346Z" fill="#FFCC00"/>
<path d="M28.5156 57.5117L19.2828 50.1417L22.7316 44.9238L28.5156 57.5117Z" fill="#FFCC00"/>
<path d="M14.9844 57.5117L24.3493 49.978L21.0325 44.9238L14.9844 57.5117Z" fill="#FFCC00"/>
<path d="M15.0547 57.5811L18.6949 45.4464L24.0757 47.3365L15.0547 57.5811Z" fill="#FFCC00"/>
<path d="M10.875 43.3818L20.1312 50.779L23.5567 45.5882L10.875 43.3818Z" fill="#FFCC00"/>
<path d="M10.9141 43.4395L22.3618 43.3244L22.3112 49.5523L10.9141 43.4395Z" fill="#FFCC00"/>
<path d="M32.7734 43.2568L23.4128 50.7842L20.0918 45.7236L32.7734 43.2568Z" fill="#FFCC00"/>
<path d="M32.7734 43.3301L21.3391 43.4686L21.2751 49.6729L32.7734 43.3301Z" fill="#FFCC00"/>
<path d="M21.9297 34.5625L25.3848 46.5497L19.8189 48.5873L21.9297 34.5625Z" fill="#FFCC00"/>
<path d="M21.9219 34.5625L18.2732 46.7052L23.6455 48.5873L21.9219 34.5625Z" fill="#FFCC00"/>
<path d="M32.7422 119.439L21.4026 119.802L21.2439 125.782L32.7422 119.439Z" fill="#FFCC00"/>
<path d="M32.7422 119.25L23.2947 126.897L20.0606 121.956L32.7422 119.25Z" fill="#FFCC00"/>
<path d="M28.5625 133.422L25.2597 121.56L19.5415 123.723L28.5625 133.422Z" fill="#FFCC00"/>
<path d="M28.3906 133.624L19.2613 126.399L22.8136 121.036L28.3906 133.624Z" fill="#FFCC00"/>
<path d="M14.9766 133.624L24.382 126.026L21.1059 121.036L14.9766 133.624Z" fill="#FFCC00"/>
<path d="M15.0703 133.755L18.766 121.561L24.0911 123.392L15.0703 133.755Z" fill="#FFCC00"/>
<path d="M22.0391 110.676L25.3921 122.559L19.7242 124.701L22.0391 110.676Z" fill="#FFCC00"/>
<path d="M22.0312 110.676L18.2884 122.924L23.5665 124.701L22.0312 110.676Z" fill="#FFCC00"/>
<path d="M10.9453 119.605L22.391 119.438L22.3384 125.614L10.9453 119.605Z" fill="#FFCC00"/>
<path d="M10.8906 119.525L20.145 126.895L23.5723 121.676L10.8906 119.525Z" fill="#FFCC00"/>
<path d="M58.0234 147.304L46.6839 147.666L46.5252 153.647L58.0234 147.304Z" fill="#FFCC00"/>
<path d="M58.0234 147.113L48.576 154.76L45.3418 149.82L58.0234 147.113Z" fill="#FFCC00"/>
<path d="M53.8281 161.278L50.5253 149.416L44.8071 151.579L53.8281 161.278Z" fill="#FFCC00"/>
<path d="M53.6641 161.48L44.5347 154.256L48.087 148.893L53.6641 161.48Z" fill="#FFCC00"/>
<path d="M40.2188 161.484L49.6243 153.886L46.3482 148.896L40.2188 161.484Z" fill="#FFCC00"/>
<path d="M40.3125 161.614L44.0083 149.42L49.3335 151.251L40.3125 161.614Z" fill="#FFCC00"/>
<path d="M47.2656 138.535L50.6187 150.418L44.9508 152.56L47.2656 138.535Z" fill="#FFCC00"/>
<path d="M47.25 138.535L43.5071 150.784L48.7852 152.56L47.25 138.535Z" fill="#FFCC00"/>
<path d="M36.1953 147.468L47.641 147.301L47.5883 153.476L36.1953 147.468Z" fill="#FFCC00"/>
<path d="M36.1406 147.388L45.395 154.757L48.8223 149.538L36.1406 147.388Z" fill="#FFCC00"/>
<path d="M339.924 81.4163C336.632 81.4163 333.715 80.742 331.173 79.3934C328.631 78.0447 326.652 76.1061 325.235 73.5774C323.818 71.0066 323.109 67.8879 323.109 64.2213C323.109 60.5548 323.818 57.4571 325.235 54.9285C326.652 52.3577 328.61 50.3979 331.111 49.0493C333.611 47.7007 336.466 47.0264 339.674 47.0264L339.924 51.9573C338.424 51.9573 337.111 52.3576 335.986 53.1584C334.903 53.9591 334.069 55.2024 333.486 56.8882C332.903 58.574 332.611 60.7655 332.611 63.4627C332.611 66.8343 333.423 69.4894 335.049 71.428C336.674 73.3667 338.924 74.336 341.8 74.336C343.508 74.336 344.904 74.0621 345.988 73.5142C347.113 72.9242 347.988 72.1656 348.613 71.2384C349.28 70.2691 349.738 69.2576 349.988 68.204H355.489C355.364 69.8476 354.947 71.4491 354.239 73.0085C353.572 74.5678 352.593 75.9797 351.301 77.244C350.051 78.5083 348.467 79.5198 346.55 80.2784C344.675 81.037 342.466 81.4163 339.924 81.4163ZM327.61 64.3478V59.6697H346.238L355.677 62.1984V64.3478H327.61ZM346.238 59.6697C346.196 58.2368 345.925 56.9514 345.425 55.8135C344.967 54.6335 344.279 53.7063 343.362 53.032C342.446 52.3155 341.3 51.9573 339.924 51.9573L339.674 47.0264C343.175 47.0264 346.113 47.6796 348.488 48.9861C350.863 50.2504 352.655 52.0205 353.864 54.2963C355.072 56.5721 355.677 59.2061 355.677 62.1984L346.238 59.6697Z" fill="white"/>
<path d="M263.031 80.6587V75.791H267.969V52.7169H263.531V47.786H276.283V58.7225L277.471 58.5961V75.791H280.659V80.6587H263.031ZM283.784 80.6587V75.791H286.972V58.28C286.972 56.7206 286.576 55.5617 285.785 54.8031C285.035 54.0445 283.993 53.6652 282.659 53.6652C281.742 53.6652 280.888 53.8759 280.096 54.2973C279.304 54.7188 278.659 55.3931 278.158 56.3203C277.7 57.2053 277.471 58.4275 277.471 59.9869L275.846 60.0501C275.846 57.395 276.158 55.1192 276.783 53.2227C277.408 51.3261 278.492 49.8722 280.034 48.8607C281.576 47.8071 283.68 47.2803 286.347 47.2803C289.306 47.2803 291.723 48.1442 293.598 49.8722C295.474 51.5579 296.411 54.2763 296.411 58.0271V75.791H299.662V80.6587H283.784ZM302.787 80.6587V75.791H305.975V58.28C305.975 56.7206 305.579 55.5617 304.787 54.8031C304.037 54.0445 302.996 53.6652 301.662 53.6652C300.745 53.6652 299.891 53.8759 299.099 54.2973C298.307 54.7188 297.661 55.3931 297.161 56.3203C296.661 57.2053 296.411 58.4275 296.411 59.9869L295.286 60.0501C295.286 57.395 295.599 55.1192 296.224 53.2227C296.849 51.3261 297.911 49.8722 299.412 48.8607C300.912 47.8071 302.975 47.2803 305.6 47.2803C308.475 47.2803 310.83 48.1442 312.664 49.8722C314.497 51.5579 315.414 54.2973 315.414 58.0903V75.791H319.102V80.6587H302.787Z" fill="white"/>
<path d="M240.456 81.4163C236.914 81.4163 233.767 80.742 231.017 79.3934C228.267 78.0447 226.1 76.1061 224.516 73.5774C222.932 71.0066 222.141 67.8879 222.141 64.2213C222.141 60.5548 222.932 57.4571 224.516 54.9285C226.1 52.3577 228.267 50.3979 231.017 49.0493C233.767 47.7007 236.914 47.0264 240.456 47.0264C243.998 47.0264 247.144 47.7007 249.895 49.0493C252.645 50.3979 254.812 52.3577 256.396 54.9285C257.979 57.4571 258.771 60.5548 258.771 64.2213C258.771 67.8879 257.979 71.0066 256.396 73.5774C254.812 76.1061 252.645 78.0447 249.895 79.3934C247.144 80.742 243.998 81.4163 240.456 81.4163ZM240.456 76.2325C242.039 76.2325 243.394 75.7479 244.519 74.7785C245.686 73.8092 246.582 72.4184 247.207 70.6062C247.832 68.7519 248.144 66.4971 248.144 63.842C248.144 61.3977 247.832 59.3115 247.207 57.5836C246.582 55.8135 245.686 54.4859 244.519 53.6009C243.394 52.6737 242.039 52.2101 240.456 52.2101C238.872 52.2101 237.497 52.6948 236.33 53.6641C235.205 54.5913 234.33 55.9399 233.705 57.71C233.121 59.4801 232.83 61.6505 232.83 64.2213C232.83 66.7922 233.121 68.9837 233.705 70.7959C234.33 72.566 235.205 73.9146 236.33 74.8418C237.497 75.7689 238.872 76.2325 240.456 76.2325Z" fill="white"/>
<path d="M202.026 81.4168C198.734 81.4168 195.817 80.7636 193.275 79.4571C190.733 78.1506 188.732 76.212 187.274 73.6412C185.815 71.0703 185.086 67.9306 185.086 64.2219C185.086 60.471 185.815 57.3312 187.274 54.8026C188.774 52.2739 190.837 50.3774 193.462 49.113C196.088 47.8066 199.109 47.1533 202.526 47.1533L203.964 51.7681C202.005 51.7681 200.317 52.2317 198.9 53.1589C197.525 54.044 196.463 55.3294 195.713 57.0151C195.004 58.6588 194.65 60.5974 194.65 62.8311C194.65 65.0647 195.004 67.0245 195.713 68.7102C196.463 70.396 197.546 71.7236 198.963 72.6929C200.38 73.6201 202.088 74.0837 204.089 74.0837C205.256 74.0837 206.297 73.9151 207.214 73.5779C208.131 73.1986 208.902 72.6929 209.527 72.0607C210.194 71.4286 210.715 70.7332 211.09 69.9746C211.507 69.216 211.777 68.4363 211.902 67.6356H217.091C217.049 69.5321 216.674 71.3232 215.966 73.009C215.299 74.6948 214.319 76.1698 213.028 77.4342C211.777 78.6564 210.215 79.6257 208.339 80.3421C206.506 81.0586 204.401 81.4168 202.026 81.4168ZM210.965 61.5035C209.381 61.5035 208.131 61.1242 207.214 60.3656C206.297 59.5649 205.839 58.5323 205.839 57.268C205.839 55.8772 206.36 54.8447 207.402 54.1704C208.485 53.4539 209.923 53.0957 211.715 53.0957L211.777 56.3198C211.277 55.4347 210.673 54.655 209.965 53.9807C209.298 53.2643 208.485 52.7164 207.527 52.3371C206.568 51.9578 205.381 51.7681 203.964 51.7681L202.526 47.1533C205.401 47.1533 207.881 47.5748 209.965 48.4177C212.09 49.2184 213.736 50.3142 214.903 51.7049C216.07 53.0957 216.653 54.634 216.653 56.3198C216.653 57.9212 216.111 59.1856 215.028 60.1128C213.986 61.0399 212.632 61.5035 210.965 61.5035Z" fill="white"/>
<path d="M162.492 80.6581V75.7904H167.243V40.8948H162.805V35.9639H176.869V75.7904H181.182V80.6581H162.492Z" fill="white"/>
<path d="M142.331 81.4163C139.038 81.4163 136.121 80.742 133.579 79.3934C131.037 78.0447 129.058 76.1061 127.641 73.5774C126.224 71.0066 125.516 67.8879 125.516 64.2213C125.516 60.5548 126.224 57.4571 127.641 54.9285C129.058 52.3577 131.016 50.3979 133.517 49.0493C136.017 47.7007 138.872 47.0264 142.081 47.0264L142.331 51.9573C140.83 51.9573 139.518 52.3576 138.393 53.1584C137.309 53.9591 136.476 55.2024 135.892 56.8882C135.309 58.574 135.017 60.7655 135.017 63.4627C135.017 66.8343 135.83 69.4894 137.455 71.428C139.08 73.3667 141.33 74.336 144.206 74.336C145.914 74.336 147.311 74.0621 148.394 73.5142C149.519 72.9242 150.394 72.1656 151.019 71.2384C151.686 70.2691 152.145 69.2576 152.395 68.204H157.895C157.77 69.8476 157.354 71.4491 156.645 73.0085C155.978 74.5678 154.999 75.9797 153.707 77.244C152.457 78.5083 150.874 79.5198 148.957 80.2784C147.081 81.037 144.873 81.4163 142.331 81.4163ZM130.016 64.3478V59.6697H148.644L158.083 62.1984V64.3478H130.016ZM148.644 59.6697C148.602 58.2368 148.332 56.9514 147.831 55.8135C147.373 54.6335 146.685 53.7063 145.769 53.032C144.852 52.3155 143.706 51.9573 142.331 51.9573L142.081 47.0264C145.581 47.0264 148.519 47.6796 150.894 48.9861C153.27 50.2504 155.062 52.0205 156.27 54.2963C157.479 56.5721 158.083 59.2061 158.083 62.1984L148.644 59.6697Z" fill="white"/>
<path d="M101.116 80.722L87.8011 42.4758H83.738V37.5449H104.366V42.4758H97.8026L108.679 75.0325H105.054L116.18 42.4758H109.742V37.5449H126.682V42.4758H122.619L109.367 80.722H101.116ZM76.7994 80.722L63.5475 42.4758H59.5469V37.5449H79.0498V42.4758H74.049L84.8631 75.0325H81.2376L91.4891 45.5102L94.4896 53.9181L85.2382 80.722H76.7994Z" fill="white"/>
<path d="M353.127 143.543C349.835 143.543 346.918 142.869 344.376 141.52C341.834 140.172 339.855 138.233 338.438 135.704C337.021 133.134 336.312 130.015 336.312 126.348C336.312 122.682 337.021 119.584 338.438 117.055C339.855 114.485 341.813 112.525 344.314 111.176C346.814 109.828 349.669 109.153 352.877 109.153L353.127 114.084C351.627 114.084 350.315 114.485 349.189 115.285C348.106 116.086 347.272 117.329 346.689 119.015C346.106 120.701 345.814 122.892 345.814 125.59C345.814 128.961 346.627 131.616 348.252 133.555C349.877 135.494 352.127 136.463 355.003 136.463C356.711 136.463 358.107 136.189 359.191 135.641C360.316 135.051 361.191 134.293 361.816 133.365C362.483 132.396 362.941 131.385 363.191 130.331H368.692C368.567 131.975 368.151 133.576 367.442 135.135C366.775 136.695 365.796 138.107 364.504 139.371C363.254 140.635 361.67 141.647 359.753 142.405C357.878 143.164 355.67 143.543 353.127 143.543ZM340.813 126.475V121.797H359.441L368.88 124.325V126.475H340.813ZM359.441 121.797C359.399 120.364 359.128 119.078 358.628 117.94C358.17 116.76 357.482 115.833 356.566 115.159C355.649 114.442 354.503 114.084 353.127 114.084L352.877 109.153C356.378 109.153 359.316 109.807 361.691 111.113C364.067 112.377 365.859 114.147 367.067 116.423C368.276 118.699 368.88 121.333 368.88 124.325L359.441 121.797Z" fill="white"/>
<path d="M316.176 143.417C313.092 143.417 310.633 142.743 308.8 141.394C306.966 140.004 305.632 138.044 304.799 135.515C304.007 132.987 303.611 129.931 303.611 126.349H303.049C303.049 122.851 303.486 119.837 304.361 117.309C305.278 114.738 306.695 112.757 308.612 111.366C310.571 109.976 313.05 109.28 316.051 109.28C318.968 109.28 321.51 109.955 323.677 111.303C325.885 112.61 327.615 114.527 328.865 117.056C330.115 119.585 330.74 122.682 330.74 126.349C330.74 130.015 330.115 133.113 328.865 135.642C327.615 138.17 325.906 140.109 323.739 141.458C321.572 142.764 319.051 143.417 316.176 143.417ZM312.675 137.475C314.3 137.475 315.676 137.054 316.801 136.211C317.926 135.368 318.801 134.124 319.426 132.481C320.051 130.795 320.364 128.751 320.364 126.349C320.364 123.947 320.051 121.924 319.426 120.28C318.801 118.594 317.926 117.33 316.801 116.487C315.676 115.644 314.3 115.223 312.675 115.223C311.05 115.223 309.654 115.644 308.487 116.487C307.32 117.33 306.424 118.594 305.799 120.28C305.174 121.924 304.861 123.947 304.861 126.349C304.861 128.751 305.174 130.795 305.799 132.481C306.424 134.124 307.32 135.368 308.487 136.211C309.654 137.054 311.05 137.475 312.675 137.475ZM290.984 154.796V149.929H295.735V114.78H291.234V109.912H304.611V121.355L304.111 126.286L305.362 133.176V149.929H311.862V154.796H290.984Z" fill="white"/>
<path d="M269.214 143.543C265.671 143.543 262.525 142.869 259.775 141.52C257.024 140.172 254.857 138.233 253.274 135.704C251.69 133.134 250.898 130.015 250.898 126.348C250.898 122.682 251.69 119.584 253.274 117.055C254.857 114.485 257.024 112.525 259.775 111.176C262.525 109.828 265.671 109.153 269.214 109.153C272.756 109.153 275.902 109.828 278.653 111.176C281.403 112.525 283.57 114.485 285.154 117.055C286.737 119.584 287.529 122.682 287.529 126.348C287.529 130.015 286.737 133.134 285.154 135.704C283.57 138.233 281.403 140.172 278.653 141.52C275.902 142.869 272.756 143.543 269.214 143.543ZM269.214 138.359C270.797 138.359 272.152 137.875 273.277 136.905C274.444 135.936 275.34 134.545 275.965 132.733C276.59 130.879 276.902 128.624 276.902 125.969C276.902 123.525 276.59 121.438 275.965 119.711C275.34 117.94 274.444 116.613 273.277 115.728C272.152 114.801 270.797 114.337 269.214 114.337C267.63 114.337 266.255 114.822 265.088 115.791C263.963 116.718 263.088 118.067 262.463 119.837C261.879 121.607 261.588 123.777 261.588 126.348C261.588 128.919 261.879 131.111 262.463 132.923C263.088 134.693 263.963 136.042 265.088 136.969C266.255 137.896 267.63 138.359 269.214 138.359Z" fill="white"/>
<path d="M216.227 142.785V137.917H221.165V114.843H216.727V109.912H229.666V121.228L230.729 120.975V137.917H238.167V142.785H216.227ZM228.041 122.556C228.082 119.184 228.645 116.529 229.729 114.59C230.854 112.61 232.291 111.198 234.042 110.355C235.834 109.47 237.771 109.027 239.855 109.027C242.189 109.027 244.064 109.638 245.481 110.861C246.939 112.041 247.669 113.6 247.669 115.539C247.669 117.14 247.169 118.447 246.169 119.458C245.21 120.47 243.897 120.975 242.23 120.975C240.772 120.975 239.605 120.596 238.73 119.837C237.855 119.037 237.417 118.025 237.417 116.803C237.417 115.328 237.876 114.211 238.792 113.453C239.751 112.694 241.251 112.378 243.293 112.504L242.793 115.665C242.626 114.822 242.168 114.169 241.418 113.705C240.709 113.242 239.751 113.01 238.542 113.01C237.209 113.01 235.938 113.368 234.729 114.085C233.562 114.759 232.604 115.792 231.854 117.182C231.104 118.573 230.729 120.364 230.729 122.556H228.041Z" fill="white"/>
<path d="M188.674 143.417C186.507 143.417 184.59 143.038 182.923 142.279C181.298 141.478 180.006 140.256 179.048 138.613C178.131 136.969 177.672 134.841 177.672 132.228V114.78H173.859V109.912H187.174V132.101C187.174 133.787 187.632 135.051 188.549 135.894C189.508 136.695 190.779 137.095 192.362 137.095C193.487 137.095 194.508 136.864 195.425 136.4C196.384 135.936 197.154 135.178 197.738 134.124C198.321 133.071 198.613 131.701 198.613 130.015L200.301 129.952C200.301 132.776 199.926 135.199 199.176 137.222C198.467 139.245 197.259 140.783 195.55 141.837C193.883 142.89 191.591 143.417 188.674 143.417ZM199.801 142.785V132.038L198.613 132.228V114.78H194.112V109.912H208.239V137.917H212.615V142.785H199.801Z" fill="white"/>
<path d="M127.961 142.786V137.792H133.149V104.603H128.023V99.6719H143.213V142.786H127.961ZM143.213 142.786V137.412H167.967V142.786H143.213ZM151.339 129.194C151.339 127.087 150.902 125.549 150.027 124.579C149.193 123.61 147.839 123.125 145.964 123.125H156.278V132.545H151.339V129.194ZM143.213 123.125V117.878H156.278V123.125H143.213ZM156.84 137.412C158.966 137.412 160.445 136.928 161.278 135.958C162.154 134.989 162.591 133.366 162.591 131.091V126.729H167.967V137.412H156.84ZM145.964 117.878C147.839 117.878 149.193 117.415 150.027 116.488C150.902 115.518 151.339 113.959 151.339 111.809V109.85H156.278V117.878H145.964ZM143.213 104.919V99.6719H167.529V104.919H143.213ZM162.154 111.367C162.154 109.091 161.695 107.448 160.778 106.436C159.903 105.425 158.424 104.919 156.34 104.919H167.529V115.16H162.154V111.367Z" fill="white"/>
<path d="M104.17 126.727C101.931 126.727 99.9379 126.244 98.1906 125.277C96.4432 124.283 95.0645 122.93 94.0543 121.218C93.0441 119.506 92.5391 117.56 92.5391 115.378C92.5391 113.169 93.0441 111.223 94.0543 109.538C95.0645 107.827 96.4432 106.487 98.1906 105.521C99.9379 104.554 101.931 104.071 104.17 104.071C106.436 104.071 108.442 104.554 110.19 105.521C111.964 106.487 113.343 107.813 114.326 109.497C115.336 111.181 115.841 113.142 115.841 115.378C115.841 117.56 115.336 119.506 114.326 121.218C113.343 122.93 111.964 124.283 110.19 125.277C108.442 126.244 106.436 126.727 104.17 126.727ZM104.17 122.295C105.426 122.295 106.545 122.019 107.528 121.467C108.511 120.915 109.275 120.114 109.821 119.065C110.395 118.015 110.681 116.787 110.681 115.378C110.681 113.943 110.395 112.714 109.821 111.692C109.275 110.643 108.511 109.842 107.528 109.29C106.545 108.738 105.439 108.462 104.211 108.462C102.955 108.462 101.835 108.738 100.852 109.29C99.8969 109.842 99.1325 110.643 98.5591 111.692C97.9858 112.714 97.6991 113.943 97.6991 115.378C97.6991 116.787 97.9858 118.015 98.5591 119.065C99.1325 120.114 99.8969 120.915 100.852 121.467C101.835 122.019 102.941 122.295 104.17 122.295Z" fill="white"/>
<path d="M85.9361 126.726C83.5335 126.726 81.677 126.105 80.3665 124.862C79.056 123.592 78.4007 121.728 78.4007 119.271V99.4316H83.5198V119.147C83.5198 120.196 83.7792 121.01 84.2979 121.59C84.844 122.17 85.5948 122.46 86.5503 122.46C87.697 122.46 88.6526 122.156 89.417 121.549L90.8504 125.235C90.2498 125.732 89.5126 126.105 88.6389 126.353C87.7653 126.602 86.8643 126.726 85.9361 126.726ZM74.7969 108.626V104.485H89.3761V108.626H74.7969Z" fill="white"/>
</g>
<defs>
<clipPath id="clip0_1577_728">
<rect width="430" height="170" fill="white"/>
</clipPath>
</defs>
</svg>
